<?xml version="1.0" standalone="no"?><svg xmlns="http://www.w3.org/2000/svg" viewBox="0 0 1440 320"><path fill="#5E50A1" fill-opacity="0.7" d="M0,320L34.3,309.3C68.6,299,137,277,206,250.7C274.3,224,343,192,411,202.7C480,213,549,267,617,277.3C685.7,288,754,256,823,213.3C891.4,171,960,117,1029,112C1097.1,107,1166,149,1234,176C1302.9,203,1371,213,1406,218.7L1440,224L1440,0L1405.7,0C1371.4,0,1303,0,1234,0C1165.7,0,1097,0,1029,0C960,0,891,0,823,0C754.3,0,686,0,617,0C548.6,0,480,0,411,0C342.9,0,274,0,206,0C137.1,0,69,0,34,0L0,0Z"></path></svg>